<?xml version="1.0" encoding="UTF-8"?>
<svg version="1.1" xmlns="http://www.w3.org/2000/svg" width="512" height="512">
<path d="M0 0 C1.5305625 0.51058279 3.06156644 1.01984388 4.5929718 1.52789307 C8.7400976 2.90789458 12.88078855 4.30633873 17.02054524 5.70826578 C21.40199575 7.18852252 25.78913732 8.65172254 30.17564392 10.11691284 C38.52061595 12.90721119 46.86030241 15.7129766 55.19824165 18.52421081 C64.52397719 21.66759582 73.85575311 24.79284627 83.18798459 27.9168818 C111.7189145 37.4696163 140.23526392 47.0643248 168.71240234 56.77636719 C169.5679553 57.06784268 170.42350827 57.35931817 171.30498707 57.65962625 C176.03719287 59.27238848 180.76633834 60.8936083 185.49191356 62.52569723 C187.600898 63.25023056 189.71360016 63.96296371 191.82699776 64.67450333 C193.09815788 65.11029492 194.36917748 65.54649673 195.64002991 65.98318481 C196.73376954 66.35389162 197.82750917 66.72459843 198.95439243 67.10653877 C201.54343605 68.22169791 202.94261628 69.04798334 204.64428711 71.26513672 C205.11303711 73.60498047 205.11303711 73.60498047 205.14428711 76.20263672 C205.19069336 77.48460937 205.19069336 77.48460937 205.23803711 78.79248047 C204.37450014 82.38865745 202.68317559 83.18012635 199.64428711 85.26513672 C196.7474668 86.63988687 193.77159002 87.75536111 190.76538086 88.86669922 C189.91629654 89.18923676 189.06721222 89.51177429 188.19239807 89.84408569 C185.49203261 90.86807493 182.78719449 91.87955278 180.08178711 92.89013672 C177.3737913 93.91029685 174.66678911 94.93302623 171.96046448 95.95761108 C170.27994788 96.59290948 168.59829714 97.22521793 166.91539001 97.85415649 C166.15102127 98.14140594 165.38665253 98.4286554 164.59912109 98.72460938 C163.93025375 98.97457672 163.26138641 99.22454407 162.57225037 99.48208618 C160.53676188 100.30880855 158.59635377 101.25869395 156.64428711 102.26513672 C157.2359668 102.90837891 157.82764648 103.55162109 158.43725586 104.21435547 C166.86826291 113.85568653 170.78636968 122.52609293 170.95678711 135.26513672 C170.89828406 140.60609871 170.89828406 140.60609871 173.26147461 145.21044922 C175.30917997 146.43028654 175.30917997 146.43028654 177.51147461 147.31591797 C182.36302496 149.47512445 185.43383756 154.27195147 187.51928711 159.01513672 C190.03687006 166.82416646 189.31407865 174.54393428 185.98022461 181.96826172 C182.65804579 187.68007793 178.74802998 190.923461 172.64428711 193.26513672 C172.82445877 193.95274078 173.00463043 194.64034485 173.19026184 195.3487854 C175.34161056 203.73287393 177.10770254 212.17427726 178.78100586 220.66357422 C179.06808284 222.11180542 179.3552603 223.56001671 179.64253235 225.00820923 C180.23875566 228.01807682 180.83255168 231.02841129 181.42480469 234.0390625 C182.18208106 237.88662395 182.94741137 241.7325357 183.71475506 245.5781002 C184.30803902 248.55766497 184.89611671 251.53823983 185.48273659 254.51912308 C185.7627897 255.93798399 186.04466171 257.35648723 186.3284359 258.77460861 C186.72390119 260.75393492 187.11137988 262.73485181 187.49853516 264.71582031 C187.72043015 265.8387851 187.94232513 266.96174988 188.17094421 268.1187439 C188.84024822 272.56772439 189.27121536 275.98278347 187.26928711 280.07763672 C185.64428711 282.26513672 185.64428711 282.26513672 183.64428711 283.26513672 C182.28254226 283.37907769 180.91561592 283.43440232 179.54931641 283.45800781 C178.28241219 283.4821022 178.28241219 283.4821022 176.98991394 283.50668335 C173.12544559 283.55115217 169.26114877 283.59219892 165.39648438 283.61523438 C163.35860778 283.63179324 161.32078925 283.6590823 159.28320312 283.69726562 C156.3446643 283.75204912 153.40748666 283.77391048 150.46850586 283.78857422 C149.56001389 283.81124359 148.65152191 283.83391296 147.71549988 283.85726929 C143.44570426 283.84302078 141.20648587 283.62083598 137.53027344 281.29492188 C132.54765235 273.29047816 136.91391664 261.75823688 138.70678711 253.03076172 C139.02156163 251.46394421 139.3354298 249.89694437 139.6484375 248.32977295 C140.46974419 244.22692309 141.30049344 240.12605101 142.13415527 236.0256958 C143.47022369 229.45037846 144.7955301 222.87291785 146.11373901 216.29399872 C146.57465701 214.00369126 147.04191051 211.71474127 147.50976562 209.42584229 C147.79311986 208.01978153 148.07625344 206.61367629 148.35913086 205.20751953 C148.7321936 203.37293182 148.7321936 203.37293182 149.11279297 201.50128174 C149.58048023 198.65364205 149.88208692 196.13782018 149.64428711 193.26513672 C148.08074453 191.68439197 148.08074453 191.68439197 145.95678711 190.51513672 C140.36708537 186.69947152 137.7515556 181.58694218 135.64428711 175.26513672 C134.96152922 167.18396963 135.16167677 160.20736117 139.64428711 153.26513672 C142.08178711 150.45263672 142.08178711 150.45263672 144.64428711 148.26513672 C145.51053711 147.50201172 146.37678711 146.73888672 147.26928711 145.95263672 C149.64428711 144.26513672 149.64428711 144.26513672 152.64428711 144.26513672 C152.21990243 130.70318263 152.21990243 130.70318263 145.74194336 119.16357422 C141.29444702 115.1384658 137.8656316 112.22987728 131.70678711 112.32763672 C127.47968695 112.88987484 123.78619675 114.26090834 119.82788086 115.82373047 C118.66699951 116.2793335 117.50611816 116.73493652 116.31005859 117.2043457 C115.430354 117.55440674 114.55064941 117.90446777 113.64428711 118.26513672 C113.63842087 119.58200974 113.63255463 120.89888275 113.62651062 122.25566101 C113.56932236 134.65993483 113.49658098 147.06403268 113.4085722 159.46812725 C113.36382582 165.84535651 113.32457892 172.22252126 113.29785156 178.59985352 C113.27186145 184.75318854 113.23148904 190.90627585 113.18110085 197.05945778 C113.16440315 199.40818007 113.152907 201.75694524 113.1466732 204.10571861 C113.13706393 207.39309089 113.10904163 210.67982522 113.07666016 213.96704102 C113.07809525 214.94024292 113.07953033 215.91344482 113.08100891 216.9161377 C113.01245784 221.83009344 112.89274999 225.2997896 109.64428711 229.26513672 C107.86791992 230.50024414 107.86791992 230.50024414 105.84741211 231.37060547 C105.06978516 231.70922607 104.2921582 232.04784668 103.4909668 232.39672852 C102.6340625 232.74517822 101.7771582 233.09362793 100.89428711 233.45263672 C99.52771973 234.02075073 99.52771973 234.02075073 98.13354492 234.6003418 C59.19708871 250.34396172 17.99326958 259.4853787 -24.04321289 259.51513672 C-24.90398437 259.51581146 -25.76475586 259.51648621 -26.65161133 259.5171814 C-41.06643642 259.49930985 -55.13171861 258.76663204 -69.35571289 256.26513672 C-70.29125 256.10416504 -71.22678711 255.94319336 -72.19067383 255.77734375 C-93.99651643 251.88103717 -134.2908688 244.54504387 -149.35571289 226.26513672 C-149.72485638 224.11561298 -149.72485638 224.11561298 -149.71647644 221.57649231 C-149.72060043 220.61315475 -149.72472443 219.6498172 -149.72897339 218.6572876 C-149.71818756 217.60208923 -149.70740173 216.54689087 -149.69628906 215.4597168 C-149.69672714 214.34737167 -149.69716522 213.23502655 -149.69761658 212.088974 C-149.6955228 208.40402816 -149.67216336 204.71953455 -149.64868164 201.03466797 C-149.6430878 198.48305001 -149.6388167 195.93142884 -149.63581848 193.37980652 C-149.62552563 187.34493463 -149.60186988 181.31025754 -149.57177001 175.27546376 C-149.53824512 168.40493124 -149.52174483 161.53439096 -149.50668371 154.66379702 C-149.47532072 140.53082003 -149.42254831 126.39798728 -149.35571289 112.26513672 C-149.9634127 112.06680363 -150.57111252 111.86847054 -151.19722748 111.66412735 C-151.99988289 111.39986828 -152.8025383 111.13560921 -153.6295166 110.86334229 C-154.42284142 110.60313419 -155.21616623 110.3429261 -156.03353119 110.07483292 C-159.3048131 108.93420532 -162.38890329 107.49551073 -165.51196289 105.99951172 C-166.49073898 105.53415009 -166.49073898 105.53415009 -167.48928833 105.05938721 C-168.88745476 104.39427226 -170.28457922 103.72696309 -171.6807251 103.05761719 C-175.43939742 101.2560703 -179.20607948 99.47144366 -182.97290039 97.68701172 C-183.7468515 97.32007202 -184.52080261 96.95313232 -185.31820679 96.57507324 C-194.80234145 92.09015671 -204.36630531 87.78110912 -213.93969727 83.49072266 C-220.74976984 80.42895815 -227.50044367 77.26711972 -234.19165039 73.95263672 C-234.87869049 73.61490234 -235.56573059 73.27716797 -236.27359009 72.92919922 C-238.98239493 71.57314548 -241.19890104 70.42194857 -243.35571289 68.26513672 C-244.51897957 63.90288667 -244.5120983 61.25444973 -242.35571289 57.26513672 C-239.76422886 53.82961284 -236.27867953 53.1233126 -232.29833984 52.07055664 C-231.5761451 51.87090396 -230.85395035 51.67125128 -230.10987091 51.46554852 C-227.69043414 50.79929111 -225.26732615 50.14753997 -222.84399414 49.49560547 C-221.11659212 49.02295661 -219.3894399 48.549394 -217.66252136 48.07498169 C-212.97880697 46.79090322 -208.29182776 45.51913371 -203.60421753 44.24936295 C-198.68340192 42.9140303 -193.7657737 41.5670677 -188.84790039 40.22094727 C-180.70948614 37.99452795 -172.56948893 35.77399193 -164.4284668 33.55712891 C-148.75882731 29.28905774 -133.10100732 24.97817721 -117.44349957 20.66585827 C-111.58084014 19.05151814 -105.71697521 17.44161287 -99.85253906 15.83374023 C-85.64472578 11.93694409 -71.44319955 8.02385707 -57.26977539 4.00341797 C-55.04652522 3.37585553 -52.82322034 2.7484869 -50.59985352 2.12133789 C-46.68547292 1.01712209 -42.77614038 -0.10278773 -38.86938477 -1.23364258 C-37.18011782 -1.71127096 -35.49067725 -2.18828586 -33.80102539 -2.66455078 C-33.07895905 -2.87895309 -32.3568927 -3.09335541 -31.61294556 -3.31425476 C-20.24064781 -6.46999595 -10.87234199 -3.71450779 0 0 Z " fill="#231F21" transform="translate(275.355712890625,116.73486328125)"/>
<path d="M0 0 C0.736787 0.24445643 1.47357401 0.48891287 2.23268789 0.74077708 C4.6863922 1.55649283 7.13714887 2.38071887 9.58799744 3.20497131 C11.35249938 3.79351496 13.11717793 4.38152935 14.88201904 4.96905518 C19.66465269 6.56288421 24.44478498 8.16409667 29.22450185 9.76664805 C34.23041536 11.44363438 39.23860295 13.1138014 44.24655151 14.78469849 C53.73226145 17.95074478 63.21591635 21.12290081 72.69884628 24.29726273 C83.47178321 27.90312084 94.24697857 31.50220623 105.02237713 35.10070026 C123.44111395 41.25185462 141.85814535 47.40809192 160.27330017 53.56996155 C161.43947904 53.96016703 161.43947904 53.96016703 162.62921709 54.35825545 C164.05685184 54.83596042 165.48447495 55.31370017 166.91208321 55.7914843 C170.72889489 57.06870007 174.54654546 58.34336729 178.36509705 59.6153717 C175.531462 62.44900675 172.06711219 63.48262912 168.3924408 64.90834045 C167.59536209 65.21862686 166.79828339 65.52891327 165.97705078 65.84860229 C164.28609826 66.5031356 162.59387374 67.15439073 160.90049744 67.80262756 C158.33002095 68.79231295 155.77079142 69.80791438 153.21080017 70.82435608 C151.56364462 71.45815962 149.91587561 72.09037158 148.2674408 72.72084045 C147.51083664 73.02596054 146.75423248 73.33108063 145.97470093 73.64544678 C140.38715734 75.73162412 136.1830182 75.71660425 130.36509705 74.6153717 C129.61177597 74.48724594 128.8584549 74.35912018 128.08230591 74.22711182 C125.64211813 73.80024673 123.21112023 73.33678311 120.77915955 72.8653717 C118.88609937 72.50523155 116.99303265 72.14512573 115.09996033 71.78504944 C113.61015656 71.4997084 113.61015656 71.4997084 112.09025574 71.20860291 C92.52072261 67.46387278 72.92184048 63.91659528 53.29335022 60.4957428 C41.92509229 58.51238953 30.56757064 56.49215035 19.2361908 54.30677795 C18.27144836 54.12086594 17.30670593 53.93495392 16.31272888 53.7434082 C11.79233094 52.86971602 7.27405566 51.98641871 2.75816345 51.08973694 C-9.88314082 48.0618511 -9.88314082 48.0618511 -22.63490295 47.6153717 C-25.68896708 50.10753434 -25.68896708 50.10753434 -27.1309967 53.65052795 C-27.01857362 57.72086151 -27.01857362 57.72086151 -25.63490295 61.4903717 C-19.93144207 64.69856845 -12.28896918 65.31348188 -5.90052795 66.4981842 C-4.49842323 66.76104721 -4.49842323 66.76104721 -3.06799316 67.02922058 C-0.00743269 67.60215073 3.05380148 68.17138349 6.11509705 68.7403717 C8.26119083 69.14100047 10.40726807 69.54171788 12.55332947 69.94252014 C29.63789431 73.12827511 46.73454606 76.24657417 63.83552551 79.34281921 C64.70251068 79.49979279 65.56949585 79.65676636 66.4627533 79.8184967 C67.31064423 79.97200592 68.15853516 80.12551514 69.03211975 80.28367615 C80.48297046 82.35887562 91.92500248 84.48172818 103.36509705 86.6153717 C100.79405914 89.18640961 98.38752827 89.90529507 94.98228455 91.20521545 C94.31707291 91.4612706 93.65186127 91.71732574 92.9664917 91.98114014 C91.50324343 92.54392793 90.03909052 93.10436771 88.57417297 93.66279602 C84.50396567 95.21492743 80.44076505 96.78522529 76.3768158 98.35365295 C75.50182938 98.69088379 74.62684296 99.02811462 73.7253418 99.37556458 C63.84002562 103.19175666 53.99249831 107.10256524 44.1443634 111.01347351 C38.04989262 113.43192767 31.95152947 115.84055662 25.85403442 118.25137329 C20.5296193 120.35804224 15.20981015 122.47561875 9.89535522 124.60728455 C6.98846258 125.77088879 4.07772842 126.92461307 1.16578674 128.07551575 C-0.14353348 128.59567455 -1.45107121 129.12034632 -2.75663757 129.64985657 C-4.51737495 130.36354474 -6.28495644 131.06027943 -8.0528717 131.7559967 C-9.01991028 132.14303772 -9.98694885 132.53007874 -10.98329163 132.92884827 C-16.83022548 134.44266633 -21.73881447 131.34768379 -26.93177795 128.8888092 C-27.74460236 128.50946732 -28.55742676 128.13012543 -29.3948822 127.73928833 C-31.1458444 126.92150325 -32.89567579 126.10129351 -34.64448547 125.27891541 C-39.30551686 123.08729946 -43.97479526 120.91335938 -48.64271545 118.73646545 C-49.58291534 118.29736343 -50.52311523 117.85826141 -51.49180603 117.40585327 C-59.72243713 113.56478177 -67.98424057 109.79569303 -76.25990295 106.0528717 C-88.15813607 100.66525466 -100.02868062 95.21981063 -111.88490295 89.7403717 C-113.53285159 88.97889582 -115.1808008 88.21742121 -116.82875061 87.45594788 C-119.3029576 86.3126335 -121.77715839 85.16930573 -124.25132751 84.02590942 C-149.32691179 72.43930818 -174.44074301 60.94198625 -199.63490295 49.6153717 C-198.63490295 47.6153717 -198.63490295 47.6153717 -196.68666077 46.87269592 C-195.82911194 46.64082581 -194.97156311 46.40895569 -194.08802795 46.1700592 C-193.11285217 45.9019342 -192.13767639 45.6338092 -191.13294983 45.3575592 C-190.06109436 45.07138733 -188.98923889 44.78521545 -187.88490295 44.4903717 C-186.77179749 44.18615295 -185.65869202 43.8819342 -184.51185608 43.5684967 C-182.12078243 42.91529946 -179.72881924 42.2653516 -177.33607483 41.61830139 C-172.47732006 40.30169423 -167.62519003 38.96161888 -162.77308655 37.6207428 C-160.33882832 36.94806293 -157.90425524 36.27652145 -155.46937561 35.60609436 C-147.39299044 33.38225604 -139.32453007 31.13143993 -131.25990295 28.8653717 C-120.68662962 25.89813938 -110.09706405 23.01443178 -99.4591217 20.2872467 C-88.43133341 17.45114941 -77.47425514 14.44937075 -66.55384827 11.22377014 C-58.97746377 8.99049723 -51.37591836 6.87162592 -43.7457428 4.82997131 C-39.08725967 3.57843222 -34.45401956 2.27408038 -29.83802795 0.8731842 C-28.41913269 0.44791443 -28.41913269 0.44791443 -26.97157288 0.01405334 C-25.17646343 -0.52702294 -23.38464934 -1.07920903 -21.59706116 -1.64463806 C-20.38022644 -2.00899963 -20.38022644 -2.00899963 -19.1388092 -2.38072205 C-18.43570618 -2.59913757 -17.73260315 -2.8175531 -17.00819397 -3.04258728 C-11.15806983 -3.88571288 -5.48586259 -1.86014373 0 0 Z " fill="#6506FA" transform="translate(266.63490295410156,133.38462829589844)"/>
<path d="M0 0 C4.51162013 1.50387338 8.57531167 3.08858099 12.87109375 5.0625 C13.53332947 5.36581741 14.19556519 5.66913483 14.87786865 5.98164368 C17.06580836 6.98475219 19.25165779 7.99233008 21.4375 9 C22.98662756 9.71141569 24.53586484 10.42259252 26.08520508 11.13354492 C31.05905599 13.41748223 36.02979527 15.70814099 41 18 C42.25574829 18.57889984 42.25574829 18.57889984 43.53686523 19.16949463 C47.75347424 21.11345898 51.96966135 23.05833269 56.18530273 25.00439453 C59.50670835 26.53755009 62.82920716 28.06829878 66.15258789 29.59716797 C73.28428761 32.88052764 80.4049497 36.17902052 87.48046875 39.58203125 C89.12849487 40.36549927 89.12849487 40.36549927 90.80981445 41.16479492 C92.76708155 42.09720548 94.71819614 43.04271868 96.66088867 44.00512695 C97.51271729 44.40820068 98.3645459 44.81127441 99.2421875 45.2265625 C99.9522998 45.57283691 100.66241211 45.91911133 101.39404297 46.27587891 C109.65448555 48.57122017 116.43864766 46.15876311 124.15234375 43.07421875 C125.2259465 42.65919098 126.29954926 42.24416321 127.40568542 41.81655884 C130.92181009 40.45394624 134.42944352 39.07073582 137.9375 37.6875 C140.37877047 36.73757107 142.82067385 35.78926718 145.26318359 34.8425293 C149.03656096 33.37946917 152.80937858 31.91504718 156.57940674 30.44337463 C168.6354045 25.73780252 180.73129656 21.1394391 192.83499146 16.55801392 C198.06052708 14.57975846 203.28427409 12.59680294 208.5078125 10.61328125 C209.40114792 10.27463043 210.29448334 9.93597961 211.21488953 9.58706665 C212.04003555 9.27385468 212.86518158 8.9606427 213.71533203 8.63793945 C214.47106506 8.35222076 215.2267981 8.06650208 216.00543213 7.77212524 C217.63249257 7.14226729 219.24110225 6.46491719 220.84326172 5.77416992 C223 5 223 5 227 5 C227 35.03 227 65.06 227 96 C192.67502508 108.25891962 192.67502508 108.25891962 175 113 C174.04625488 113.2578125 173.09250977 113.515625 172.10986328 113.78125 C164.75355201 115.70207131 157.39335602 117.01805712 149.875 118.125 C148.22177734 118.37830078 148.22177734 118.37830078 146.53515625 118.63671875 C136.86384921 120.09372467 127.31596479 121.14627118 117.53125 121.23828125 C116.66124359 121.24812042 115.79123718 121.25795959 114.89486694 121.26809692 C73.7875674 121.63717217 37.04986948 114.52493474 0 96 C0 64.32 0 32.64 0 0 Z " fill="#1096C5" transform="translate(143,237)"/>
<path d="M0 0 C4.51162013 1.50387338 8.57531167 3.08858099 12.87109375 5.0625 C13.86431137 5.51740814 13.86431137 5.51740814 14.87759399 5.98150635 C17.06563027 6.98464995 19.25157267 7.99227009 21.4375 9 C22.98809407 9.71214448 24.53879617 10.42405377 26.08959961 11.13574219 C31.06190074 13.41913053 36.03109508 15.70923279 41 18 C42.68000301 18.77411027 44.36001601 19.54819885 46.04003906 20.32226562 C55.09332546 24.49431711 64.14383215 28.67236327 73.19247437 32.85447693 C78.18461387 35.16165385 83.17775367 37.46664749 88.171875 39.76953125 C88.79215073 40.05559235 89.41242645 40.34165344 90.05149841 40.63638306 C92.88910599 41.94503538 95.7268143 43.25346838 98.56469727 44.56152344 C99.52947998 45.00657227 100.4942627 45.45162109 101.48828125 45.91015625 C102.73411987 46.48455444 102.73411987 46.48455444 104.00512695 47.07055664 C105.3455799 47.69509518 106.67731713 48.33865856 108 49 C108.12473325 73.02362388 107.91430941 96.99208285 107 121 C69.28093264 122.40945063 33.60310381 112.8015519 0 96 C0 64.32 0 32.64 0 0 Z " fill="#26A8DF" transform="translate(143,237)"/>
<path d="M0 0 C5.10431558 0.59263045 9.76389667 1.73296975 14.63490295 3.3846283 C15.74008346 3.75131295 15.74008346 3.75131295 16.86759084 4.12540537 C19.32129515 4.94112112 21.77205182 5.76534717 24.22290039 6.58959961 C25.98740234 7.17814326 27.75208089 7.76615764 29.516922 8.35368347 C34.29955565 9.94751251 39.07968794 11.54872496 43.8594048 13.15127635 C48.86531832 14.82826268 53.87350591 16.4984297 58.88145447 18.16932678 C68.3671644 21.33537308 77.8508193 24.5075291 87.33374923 27.68189102 C98.10668617 31.28774914 108.88188152 34.88683453 119.65728009 38.48532856 C138.07601691 44.63648292 156.4930483 50.79272022 174.90820312 56.95458984 C175.68565571 57.21472683 176.46310829 57.47486382 177.26412004 57.74288374 C178.69175479 58.22058871 180.1193779 58.69832846 181.54698616 59.17611259 C185.36379785 60.45332836 189.18144842 61.72799558 193 63 C190.16636496 65.83363504 186.70201514 66.86725742 183.02734375 68.29296875 C182.23026505 68.60325516 181.43318634 68.91354156 180.61195374 69.23323059 C178.92100121 69.8877639 177.22877669 70.53901902 175.53540039 71.18725586 C172.9649239 72.17694124 170.40569437 73.19254268 167.84570312 74.20898438 C166.19854758 74.84278792 164.55077856 75.47499988 162.90234375 76.10546875 C162.14573959 76.41058884 161.38913544 76.71570892 160.60960388 77.03007507 C155.0220603 79.11625242 150.81792116 79.10123255 145 78 C144.24667892 77.87187424 143.49335785 77.74374847 142.71720886 77.61174011 C140.27702109 77.18487502 137.84602318 76.7214114 135.4140625 76.25 C133.52100232 75.88985985 131.62793561 75.52975403 129.73486328 75.16967773 C128.24505951 74.8843367 128.24505951 74.8843367 126.72515869 74.5932312 C108.21831941 71.05185297 89.68707827 67.67598271 71.125 64.4375 C53.03512838 61.27982406 34.98159973 57.96843134 16.95361328 54.47436523 C16.12731415 54.3146373 15.30101501 54.15490936 14.44967651 53.99034119 C12.93105505 53.69636245 11.41273428 53.40082345 9.89480591 53.10328674 C5.60690606 52.27198653 1.32665605 51.58403509 -3 51 C-1.68 50.34 -0.36 49.68 1 49 C1.33 33.16 1.66 17.32 2 1 C1.34 0.67 0.68 0.34 0 0 Z " fill="#5614BF" transform="translate(252,130)"/>
<path d="M0 0 C6.37315237 0.64152525 12.61554485 1.57375165 18.91015625 2.75 C19.85550735 2.92405869 20.80085846 3.09811737 21.77485657 3.27745056 C24.8713282 3.848489 27.96691727 4.42416398 31.0625 5 C33.2292897 5.40068689 35.39611978 5.80115549 37.56298828 6.20141602 C55.19760317 9.46308714 72.82504006 12.76380588 90.44946289 16.08007812 C103.71750362 18.5791403 103.71750362 18.5791403 117 21 C114.42896209 23.57103791 112.02243122 24.28992337 108.6171875 25.58984375 C107.95197586 25.8458989 107.28676422 26.10195404 106.60139465 26.36576843 C105.13814639 26.92855623 103.67399347 27.48899601 102.20907593 28.04742432 C98.13886862 29.59955572 94.07566801 31.16985358 90.01171875 32.73828125 C89.13673233 33.07551208 88.26174591 33.41274292 87.36024475 33.76019287 C77.4747729 37.57644505 67.62703415 41.48719844 57.77871704 45.39810181 C51.68716254 47.81582826 45.59237882 50.22540257 39.4980011 52.63600159 C34.9607338 54.4310567 30.42426182 56.22801964 25.890625 58.03222656 C22.16055163 59.5163837 18.42725922 60.99207302 14.69082642 62.46014404 C13.3683485 62.98156035 12.04716647 63.50627698 10.72738647 64.03448486 C8.95058979 64.74515746 7.16879473 65.44329639 5.38671875 66.140625 C4.40920654 66.52766602 3.43169434 66.91470703 2.42456055 67.31347656 C0 68 0 68 -3 67 C-2.34 67 -1.68 67 -1 67 C-1.00523682 66.03626465 -1.01047363 65.0725293 -1.01586914 64.07958984 C-1.12156451 42.69255816 -0.90539844 21.37077424 0 0 Z " fill="#5614C0" transform="translate(253,199)"/>
<path d="M0 0 C3.5 0.625 3.5 0.625 6.5 2.5625 C8.95462138 6.32113899 8.9227991 8.28145672 8.1328125 12.59765625 C7.5 14.625 7.5 14.625 5.9375 16.6875 C2.38482286 18.05391429 -0.75624103 18.43052191 -4.5 17.625 C-7.74985922 14.94386615 -8.39575014 13.27366582 -9.0625 9.125 C-8.5 5.625 -8.5 5.625 -6.4375 2.6875 C-3.5 0.625 -3.5 0.625 0 0 Z " fill="#5514BD" transform="translate(437.5,276.375)"/>
<path d="M0 0 C0.33 0 0.66 0 1 0 C1.85687172 4.37779407 2.71130895 8.75605404 3.56347656 13.13476562 C3.85382001 14.62480561 4.14483258 16.11471538 4.43652344 17.60449219 C4.85527 19.74380286 5.27162125 21.88356773 5.6875 24.0234375 C5.93886719 25.31169434 6.19023437 26.59995117 6.44921875 27.92724609 C7 31 7 31 7 33 C2.71 33 -1.58 33 -6 33 C-5.31791417 26.11519616 -4.25414036 19.36484824 -3 12.5625 C-2.82210938 11.57056641 -2.64421875 10.57863281 -2.4609375 9.55664062 C-2.28820312 8.61111328 -2.11546875 7.66558594 -1.9375 6.69140625 C-1.78152344 5.83748291 -1.62554687 4.98355957 -1.46484375 4.10375977 C-1 2 -1 2 0 0 Z " fill="#5414BA" transform="translate(437,349)"/>
</svg>
